<svg xmlns="http://www.w3.org/2000/svg" viewBox="0 0 302.7 145"><g id="Logo_On_Black"><path fill="#ffffff" class="st0" d="M45.2 0h23.2c2.7 0 5.4.2 8.1.6 2.7.4 5.2 1.1 7.3 2.3 2.2 1.1 4 2.7 5.3 4.7 1.3 2.1 2 4.8 2 8.2 0 3.5-1 6.4-2.9 8.7-2 2.3-4.6 4-7.8 5v.2c2.1.3 3.9.9 5.6 1.7 1.7.9 3.1 1.9 4.3 3.3 1.2 1.3 2.1 2.9 2.8 4.6.6 1.8 1 3.6 1 5.6 0 3.3-.7 6-2.1 8.2-1.4 2.2-3.2 4-5.4 5.3s-4.7 2.3-7.5 2.9c-2.8.6-5.6.9-8.3.9H45.2V0zm13.7 24.9h9.9c1.1 0 2.1-.1 3.1-.4 1-.2 1.9-.6 2.8-1.1.8-.5 1.5-1.2 2-2.1.5-.9.7-1.9.7-3.2 0-1.3-.3-2.4-.8-3.2-.6-.8-1.3-1.5-2.2-2-.9-.5-1.9-.8-3-1-1.1-.2-2.2-.3-3.3-.3h-9.3v13.3zm0 25.7h12.3c1.1 0 2.1-.1 3.2-.4 1.1-.2 2.1-.6 2.9-1.2.9-.6 1.6-1.3 2.2-2.3.6-.9.8-2.1.8-3.4 0-1.5-.4-2.7-1.1-3.6-.7-.9-1.7-1.6-2.8-2.1-1.1-.5-2.3-.8-3.6-1-1.3-.2-2.5-.3-3.6-.3H58.9v14.3zM102.7 0h13.7v49.6h25.4v12.7h-39.1V0zM201.8 38.2c0 3.7-.6 7.1-1.7 10.2-1.1 3.1-2.8 5.8-5 8.1s-4.9 4.1-8.2 5.4c-3.3 1.3-7.1 1.9-11.3 1.9-4.3 0-8.1-.6-11.4-1.9-3.3-1.3-6-3.1-8.2-5.4-2.2-2.3-3.9-5-5-8.1-1.1-3.1-1.7-6.5-1.7-10.2V0H163v37.7c0 1.9.3 3.7.9 5.4.6 1.6 1.5 3.1 2.6 4.3 1.1 1.2 2.4 2.1 4 2.8 1.6.7 3.2 1 5.1 1 1.8 0 3.5-.3 5-1s2.8-1.6 4-2.8c1.1-1.2 2-2.6 2.6-4.3.6-1.6.9-3.4.9-5.4V0h13.7v38.2zM215 0h42.3v12.7h-28.6v11.6h27V37h-27v12.7h30.1v12.7H215V0zM22.6 71.2h20.6c5 0 9.7.6 14.2 1.7s8.4 2.9 11.7 5.4c3.3 2.5 6 5.7 8 9.7 2 4 2.9 8.8 2.9 14.5 0 5-1 9.5-2.9 13.3-1.9 3.8-4.5 7.1-7.7 9.7-3.2 2.6-6.9 4.6-11.2 5.9-4.2 1.3-8.6 2-13.3 2H22.6V71.2zm13.7 49.5h7.1c3.2 0 6.1-.3 8.8-1 2.7-.6 5.1-1.7 7.1-3.2 2-1.5 3.6-3.5 4.7-5.9 1.1-2.4 1.7-5.4 1.7-8.9 0-3-.6-5.7-1.7-8s-2.7-4.1-4.6-5.6-4.2-2.6-6.8-3.3c-2.6-.7-5.3-1.1-8.2-1.1h-8.1v37zM85.9 102.3c0-5 .8-9.5 2.5-13.5s4-7.5 7-10.3c3-2.8 6.5-5 10.6-6.5s8.6-2.3 13.4-2.3c4.9 0 9.3.8 13.4 2.3 4.1 1.5 7.6 3.7 10.6 6.5s5.3 6.3 7 10.3c1.7 4 2.5 8.6 2.5 13.5 0 5-.8 9.5-2.5 13.5s-4 7.5-7 10.3c-3 2.8-6.5 5-10.6 6.5s-8.6 2.3-13.4 2.3c-4.9 0-9.3-.8-13.4-2.3s-7.6-3.7-10.6-6.5-5.3-6.3-7-10.3c-1.7-4-2.5-8.6-2.5-13.5zm14.2 0c0 2.9.5 5.6 1.4 8 .9 2.4 2.2 4.5 3.9 6.3 1.7 1.8 3.7 3.2 6.1 4.2 2.4 1 5 1.5 8 1.5s5.6-.5 8-1.5c2.4-1 4.4-2.4 6.1-4.2 1.7-1.8 3-3.9 3.9-6.3.9-2.4 1.4-5.1 1.4-8 0-2.9-.5-5.5-1.4-8-.9-2.5-2.2-4.6-3.9-6.4-1.7-1.8-3.7-3.2-6.1-4.2-2.4-1-5-1.5-8-1.5s-5.6.5-8 1.5c-2.4 1-4.4 2.4-6.1 4.2-1.7 1.8-3 3.9-3.9 6.4-.9 2.4-1.4 5.1-1.4 8zM159 102.3c0-5 .8-9.5 2.5-13.5s4-7.5 7-10.3c3-2.8 6.5-5 10.6-6.5s8.6-2.3 13.4-2.3c4.9 0 9.3.8 13.4 2.3 4.1 1.5 7.6 3.7 10.6 6.5s5.3 6.3 7 10.3c1.7 4 2.5 8.6 2.5 13.5 0 5-.8 9.5-2.5 13.5s-4 7.5-7 10.3c-3 2.8-6.5 5-10.6 6.5s-8.6 2.3-13.4 2.3c-4.9 0-9.3-.8-13.4-2.3-4.1-1.5-7.6-3.7-10.6-6.5s-5.3-6.3-7-10.3c-1.6-4-2.5-8.6-2.5-13.5zm14.3 0c0 2.9.5 5.6 1.4 8 .9 2.4 2.2 4.5 3.9 6.3 1.7 1.8 3.7 3.2 6.1 4.2 2.4 1 5 1.5 8 1.5s5.6-.5 8-1.5c2.4-1 4.4-2.4 6.1-4.2 1.7-1.8 3-3.9 3.9-6.3.9-2.4 1.4-5.1 1.4-8 0-2.9-.5-5.5-1.4-8-.9-2.5-2.2-4.6-3.9-6.4-1.7-1.8-3.7-3.2-6.1-4.2-2.4-1-5-1.5-8-1.5s-5.6.5-8 1.5c-2.4 1-4.4 2.4-6.1 4.2-1.7 1.8-3 3.9-3.9 6.4-1 2.4-1.4 5.1-1.4 8zM235.5 71.2h24.1c3.2 0 6.2.3 9 .9 2.8.6 5.3 1.6 7.5 3.1 2.1 1.4 3.8 3.4 5.1 5.8 1.3 2.4 1.9 5.5 1.9 9.1 0 4.4-1.1 8.1-3.4 11.2-2.3 3.1-5.6 5-10 5.8l15.8 26.3H269l-13-24.9h-6.8v24.9h-13.7V71.2zm13.7 25.7h8.1c1.2 0 2.5 0 3.9-.1s2.6-.4 3.7-.8 2-1.1 2.8-2.1c.7-.9 1.1-2.3 1.1-4 0-1.6-.3-2.8-1-3.8-.6-.9-1.5-1.7-2.5-2.2-1-.5-2.1-.8-3.4-1-1.3-.2-2.5-.3-3.8-.3h-9v14.3z"/></g></svg>